<?xml version="1.0" encoding="UTF-8" standalone="no"?>
<!-- Created with Inkscape (http://www.inkscape.org/) -->

<svg
   xmlns:dc="http://purl.org/dc/elements/1.1/"
   xmlns:cc="http://creativecommons.org/ns#"
   xmlns:rdf="http://www.w3.org/1999/02/22-rdf-syntax-ns#"
   xmlns:svg="http://www.w3.org/2000/svg"
   xmlns="http://www.w3.org/2000/svg"
   xmlns:sodipodi="http://sodipodi.sourceforge.net/DTD/sodipodi-0.dtd"
   xmlns:inkscape="http://www.inkscape.org/namespaces/inkscape"
   id="svg3422"
   version="1.1"
   inkscape:version="0.91 r13725"
   width="170.7"
   height="179.7"
   viewBox="0 0 170.7 179.7"
   sodipodi:docname="logo-white.svg">
  <metadata
     id="metadata3428">
    <rdf:RDF>
      <cc:Work
         rdf:about="">
        <dc:format>image/svg+xml</dc:format>
        <dc:type
           rdf:resource="http://purl.org/dc/dcmitype/StillImage" />
        <dc:title></dc:title>
      </cc:Work>
    </rdf:RDF>
  </metadata>
  <defs
     id="defs3426" />
  <sodipodi:namedview
     pagecolor="#ffffff"
     bordercolor="#666666"
     borderopacity="1"
     objecttolerance="10"
     gridtolerance="10"
     guidetolerance="10"
     inkscape:pageopacity="0"
     inkscape:pageshadow="2"
     inkscape:window-width="1920"
     inkscape:window-height="1056"
     id="namedview3424"
     showgrid="false"
     inkscape:zoom="5.1140791"
     inkscape:cx="-29.822253"
     inkscape:cy="97.671543"
     inkscape:window-x="0"
     inkscape:window-y="24"
     inkscape:window-maximized="1"
     inkscape:current-layer="svg3422" />
  <path
     style="fill:#ffffff;fill-opacity:1"
     d="M 75.710781,179.05257 C 48.722907,175.64057 25.233631,159.45685 11.530565,134.83347 0.10904539,114.30984 -2.9688446,88.851768 3.1564054,65.568377 6.1931054,54.025226 12.049381,42.176732 19.498679,32.504462 22.68807,28.363313 31.255764,19.942116 35.55,16.727598 47.576964,7.7246288 60.412362,2.4792808 75.6,0.36066179 c 4.268466,-0.595435 16.040871,-0.511079 20.55,0.147253 23.01271,3.35985101 42.26288,14.91988521 56.57906,33.97663121 8.74104,11.635494 14.78972,26.41248 17.1182,41.819916 0.61832,4.091379 0.70168,5.713176 0.69394,13.499996 -0.007,6.88739 -0.12689,9.64835 -0.54129,12.450002 -3.01665,20.39514 -11.32682,37.64011 -24.89618,51.66365 -13.00134,13.43651 -29.07559,21.80014 -47.771064,24.85589 -4.175757,0.68252 -17.108799,0.84915 -21.621885,0.27857 z m 18.398853,-12.60926 c 21.005926,-2.73612 39.330046,-14.31312 51.408496,-32.47938 6.53609,-9.83043 10.44339,-19.98038 12.45018,-32.3417 0.74208,-4.571052 0.91321,-15.783242 0.31902,-20.902428 -1.14651,-9.877734 -3.46569,-17.840628 -7.71496,-26.489226 C 140.81865,34.378664 123.22308,19.821749 102.70794,14.632059 96.229038,12.993098 92.766237,12.579601 85.5,12.57724 73.625745,12.57334 64.85151,14.594229 54.376614,19.745453 46.527606,23.60535 40.523355,27.995984 34.14699,34.53845 22.431312,46.559321 15.435056,60.964889 12.69718,78.704462 c -0.748078,4.847026 -0.744039,16.968316 0.0073,22.049998 2.615941,17.69182 10.209069,33.0709 22.219897,45.00407 6.143193,6.10348 11.86272,10.19562 19.525575,13.96995 7.248591,3.57029 15.294678,5.97938 22.8,6.82659 4.017015,0.45344 12.976371,0.39405 16.859634,-0.11176 z M 82.968942,152.11214 c -6.494253,-18.53769 -9.665922,-27.66771 -9.630579,-27.72275 0.02298,-0.0358 2.525718,0.60099 5.561637,1.41507 3.035919,0.81408 5.578536,1.42146 5.65026,1.34974 0.07172,-0.0717 1.845246,-8.13351 3.941157,-17.91507 l 3.81075,-17.784672 -18.101085,-0.0773 c -16.981368,-0.0725 -18.100734,-0.10966 -18.095445,-0.6 0.0031,-0.28747 3.08235,-15.575176 6.842775,-33.972676 l 6.837138,-33.45 12.957225,-0.07819 C 89.869248,23.233292 95.7,23.245722 95.7,23.303922 c 0,0.08655 -14.707176,47.692468 -15.423048,49.92313 l -0.215844,0.672576 17.366622,0.07742 17.36662,0.07743 -7.94336,26.478812 c -4.36884,14.56335 -7.88882,26.53334 -7.822172,26.59997 0.06665,0.0666 2.888682,-0.53132 6.271182,-1.32879 3.3825,-0.79747 6.18031,-1.41964 6.21737,-1.3826 0.0608,0.0608 -3.37391,4.06792 -21.549011,25.14028 l -5.612934,6.50768 -1.386483,-3.95768 z"
     id="path3343"
     inkscape:connector-curvature="0" />
</svg>
